<svg version="1.1" xmlns="http://www.w3.org/2000/svg" xmlns:xlink="http://www.w3.org/1999/xlink" x="0px" y="0px"
	 viewBox="0.9 213 498.2 75.8" enable-background="new 0.9 213 498.2 75.8" xml:space="preserve">
<g id="hx">
	<g id="nw" transform="translate(1, 1) scale(1, 1)">
		<g>
			<path fill="#F1F1D9" d="M35.2,250.8L20,275.9h15.3v-25.8C35.3,250.4,35.3,250.6,35.2,250.8z"/>
			<path fill="#F1F1D9" d="M35.2,249.1c0.1,0.2,0.2,0.4,0.2,0.6v-25.9H20L35.2,249.1z"/>
			<path fill="#F1F1D9" d="M17.2,279.1c-0.6,0-1.1-0.3-1.4-0.8c-0.3-0.5-0.3-1.1,0-1.6L31.9,250l-16.1-26.9c-0.3-0.5-0.3-1.1,0-1.6
				c0.3-0.5,0.8-0.8,1.4-0.8h18.2V212H-0.1l22.2,38L0,287.8h35.4v-8.7L17.2,279.1L17.2,279.1z"/>
		</g>
		<g>
			<path fill="#AB7253" d="M20,275.9l15.1-25.2c0.1-0.2,0.2-0.4,0.2-0.6v-0.4c0-0.2-0.1-0.4-0.2-0.6L20,223.8h15.4v-3.2H17.2
				c-0.6,0-1.1,0.3-1.4,0.8c-0.3,0.5-0.3,1.1,0,1.6L31.9,250l-16.1,26.8c-0.3,0.5-0.3,1.1,0,1.6c0.3,0.5,0.8,0.8,1.4,0.8h18.1v-3.2
				H20z"/>
		</g>
	</g>
	<g id="n" transform="translate(0.40763260883461927, 1) scale(0.9897769824141308, 1)">
		<g>
			<path fill="#F1F1D9" d="M35.4,250.1v25.8h433.5V250c0-0.1,0-0.1,0-0.1v-26H35.4v25.9C35.4,249.9,35.4,250,35.4,250.1z"/>
			<rect x="35.4" y="279.1" fill="#F1F1D9" width="433.5" height="8.7"/>
			<rect x="35.4" y="212" fill="#F1F1D9" width="433.5" height="8.7"/>
		</g>
		<rect x="179.7" y="232.5" fill="none" width="145" height="35.3" data-transform="matrix(1.0103 0 0 1 178.921 263.4177)" data-font-family="'SimHei'" data-font-size="36" data-color="#000000" />
		<text transform="matrix(1.0103 0 0 1 178.921 263.4177)" font-family="'SimHei'" font-size="36" fill="#FFFFFF">示例文字</text>
		<g>
			<rect x="35.4" y="220.7" fill="#AB7253" width="433.5" height="3.2"/>
			<rect x="35.4" y="275.9" fill="#AB7253" width="433.5" height="3.2"/>
		</g>
		<g>
			<rect x="45.7" y="212" fill="none" width="412.9" height="75.8"/>
		</g>
	</g>
	<g id="ne" transform="translate(-5.980255813953477, 1) scale(1, 1)">
		<g>
			<path fill="#F1F1D9" d="M469.8,249.1l15.2-25.3h-15.4v26C469.6,249.6,469.7,249.4,469.8,249.1z"/>
			<path fill="#F1F1D9" d="M484.9,275.9l-15.1-25.2c-0.1-0.2-0.2-0.5-0.2-0.7v25.9H484.9z"/>
			<path fill="#F1F1D9" d="M482.9,250l22.2-38h-35.5v8.7h18.2c0.6,0,1.1,0.3,1.4,0.8c0.3,0.5,0.3,1.1,0,1.6L473,250l16.1,26.8
				c0.3,0.5,0.3,1.1,0,1.6c-0.3,0.5-0.8,0.8-1.4,0.8h-18.1v8.7H505L482.9,250z"/>
		</g>
		<g>
			<path fill="#AB7253" d="M485,223.8l-15.2,25.3c-0.1,0.2-0.2,0.5-0.2,0.7v0.1c0,0.3,0.1,0.5,0.2,0.7l15.1,25.2h-15.3v3.2h18.2
				c0.6,0,1.1-0.3,1.4-0.8c0.3-0.5,0.3-1.1,0-1.6L473,250l16.2-26.9c0.3-0.5,0.3-1.1,0-1.6c-0.3-0.5-0.8-0.8-1.4-0.8h-18.2v3.2
				L485,223.8L485,223.8z"/>
		</g>
	</g>
</g>
</svg>
